<svg enable-background="new 0 0 32 32" height="512" viewBox="0 0 32 32" width="512" xmlns="http://www.w3.org/2000/svg"><g id="Layer_1"><g fill="rgb(0,0,0)"><path d="m19.5 23.75c.5522 0 1-.4478 1-1v-10c0-.5522-.4478-1-1-1s-1 .4478-1 1v10c0 .5522.4478 1 1 1z"/><path d="m12.5 23.75c.5522 0 1-.4478 1-1v-10c0-.5522-.4478-1-1-1s-1 .4478-1 1v10c0 .5522.4478 1 1 1z"/><path d="m20 4.25c.5522 0 1-.4478 1-1s-.4478-1-1-1h-8c-.5522 0-1 .4478-1 1s.4478 1 1 1z"/><path d="m5 5.25c-.5522 0-1 .4478-1 1s.4478 1 1 1h1v18.4c0 2.2599 1.84 4.1 4.1 4.1h11.8c2.2599 0 4.1-1.84 4.1-4.1v-18.4h1c.5522 0 1-.4478 1-1s-.4478-1-1-1h-2-18zm19 2v18.4c0 1.16-.94 2.1-2.1 2.1h-11.8c-1.16 0-2.1-.94-2.1-2.1v-18.4z"/></g></g></svg>